<svg xmlns="http://www.w3.org/2000/svg" xmlns:xlink="http://www.w3.org/1999/xlink" viewBox="0 0 500 500" width="500" height="500" preserveAspectRatio="xMidYMid meet" style="width: 100%; height: 100%; transform: translate3d(0px, 0px, 0px); content-visibility: visible;"><defs><clipPath id="__lottie_element_50"><rect width="500" height="500" x="0" y="0"></rect></clipPath></defs><g clip-path="url(#__lottie_element_50)"><g transform="matrix(2.6870057582855225,-2.6870057582855225,2.6870057582855225,2.6870057582855225,288.0025634765625,196.36758422851562)" opacity="1" style="display: none;"><g opacity="1" transform="matrix(1,0,0,1,0,0)"><path stroke-linecap="round" stroke-linejoin="round" fill-opacity="0" stroke="rgb(7,168,137)" stroke-opacity="1" stroke-width="2.8000000000000003" d="M0 0"></path></g></g><g transform="matrix(3.799999952316284,0,0,3.799999952316284,277.54998779296875,218.59999084472656)" opacity="1" style="display: none;"><g opacity="1" transform="matrix(1,0,0,1,0,0)"><path stroke-linecap="round" stroke-linejoin="round" fill-opacity="0" stroke="rgb(7,168,137)" stroke-opacity="1" stroke-width="2.8000000000000003" d="M0 0"></path></g></g><g transform="matrix(2.6870057582855225,2.6870057582855225,-2.6870057582855225,2.6870057582855225,243.03822326660156,226.92959594726562)" opacity="1" style="display: none;"><g opacity="1" transform="matrix(1,0,0,1,0,0)"><path stroke-linecap="round" stroke-linejoin="round" fill-opacity="0" stroke="rgb(7,168,137)" stroke-opacity="1" stroke-width="2.8000000000000003" d="M0 0"></path></g></g><g transform="matrix(0,3.799999952316284,-3.799999952316284,0,212.7447967529297,212.21600341796875)" opacity="1" style="display: none;"><g opacity="1" transform="matrix(1,0,0,1,0,0)"><path stroke-linecap="round" stroke-linejoin="round" fill-opacity="0" stroke="rgb(7,168,137)" stroke-opacity="1" stroke-width="2.8000000000000003" d="M0 0"></path></g></g><g transform="matrix(-2.6870057582855225,2.6870057582855225,-2.6870057582855225,-2.6870057582855225,204.4152069091797,173.9042205810547)" opacity="1" style="display: none;"><g opacity="1" transform="matrix(1,0,0,1,0,0)"><path stroke-linecap="round" stroke-linejoin="round" fill-opacity="0" stroke="rgb(7,168,137)" stroke-opacity="1" stroke-width="2.8000000000000003" d="M0 0"></path></g></g><g transform="matrix(-3.799999952316284,0,0,-3.799999952316284,222.92880249023438,143.6107940673828)" opacity="1" style="display: none;"><g opacity="1" transform="matrix(1,0,0,1,0,0)"><path stroke-linecap="round" stroke-linejoin="round" fill-opacity="0" stroke="rgb(7,168,137)" stroke-opacity="1" stroke-width="2.8000000000000003" d="M0 0"></path></g></g><g transform="matrix(-2.6870057582855225,-2.6870057582855225,2.6870057582855225,-2.6870057582855225,265.5015869140625,143.34222412109375)" opacity="1" style="display: none;"><g opacity="1" transform="matrix(1,0,0,1,0,0)"><path stroke-linecap="round" stroke-linejoin="round" fill-opacity="0" stroke="rgb(7,168,137)" stroke-opacity="1" stroke-width="2.8000000000000003" d="M0 0"></path></g></g><g transform="matrix(4.363739967346191,-0.23382551968097687,0.23382551968097687,4.363739967346191,247.48240661621094,240.96478271484375)" opacity="1" style="display: block;"><g opacity="1" transform="matrix(1,0,0,1,0,0)"><path stroke-linecap="round" stroke-linejoin="round" fill-opacity="0" stroke="rgb(7,168,137)" stroke-opacity="1" stroke-width="2.8000000000000003" d=" M-2.069999933242798,29.312000274658203 C-2.069999933242798,29.312000274658203 -8.675999641418457,29.312000274658203 -8.675999641418457,29.312000274658203 C-8.675999641418457,29.312000274658203 -8.675999641418457,31.569000244140625 -8.675999641418457,31.569000244140625 C-8.675999641418457,35.125999450683594 -5.791999816894531,38.00899887084961 -2.234999895095825,38.00899887084961 C-2.234999895095825,38.00899887084961 0.0949999988079071,38.00899887084961 0.0949999988079071,38.00899887084961 C3.6519999504089355,38.00899887084961 6.534999847412109,35.125999450683594 6.534999847412109,31.569000244140625 C6.534999847412109,31.569000244140625 6.534999847412109,29.312000274658203 6.534999847412109,29.312000274658203 C6.534999847412109,29.312000274658203 -2.069999933242798,29.312000274658203 -2.069999933242798,29.312000274658203z"></path></g></g><g transform="matrix(4.35398006439209,-0.37384212017059326,0.37384212017059326,4.35398006439209,242.90708923339844,241.14862060546875)" opacity="1" style="display: block;"><g opacity="1" transform="matrix(1,0,0,1,0,0)"><path stroke-linecap="round" stroke-linejoin="round" fill-opacity="0" stroke="rgb(18,19,48)" stroke-opacity="1" stroke-width="2.8000000000000003" d=" M-1.0700000524520874,23.531999588012695 C-1.0700000524520874,23.531999588012695 5.204999923706055,23.531999588012695 5.204999923706055,23.531999588012695 C6.938000202178955,23.531999588012695 8.343000411987305,22.128000259399414 8.343000411987305,20.395000457763672 C8.343000411987305,20.395000457763672 8.343000411987305,17.12299919128418 8.343000411987305,17.12299919128418 C8.343000411987305,15.404000282287598 9.08899974822998,13.772000312805176 10.395000457763672,12.654999732971191 C14.437000274658203,9.197999954223633 23.040000915527344,0.47600001096725464 23.040000915527344,-11.147000312805176 C23.040000915527344,-24.632999420166016 15.939000129699707,-34.76100158691406 -1.0700000524520874,-34.76100158691406 C-18.07900047302246,-34.76100158691406 -25.18000030517578,-24.632999420166016 -25.18000030517578,-11.147000312805176 C-25.18000030517578,0.47600001096725464 -16.577999114990234,9.197999954223633 -12.53600025177002,12.654999732971191 C-11.229999542236328,13.772000312805176 -10.482999801635742,15.404000282287598 -10.482999801635742,17.12299919128418 C-10.482999801635742,17.12299919128418 -10.482999801635742,20.395000457763672 -10.482999801635742,20.395000457763672 C-10.482999801635742,22.128000259399414 -9.079000473022461,23.531999588012695 -7.3460001945495605,23.531999588012695 C-7.3460001945495605,23.531999588012695 -1.0700000524520874,23.531999588012695 -1.0700000524520874,23.531999588012695z"></path></g></g><g transform="matrix(4.339728832244873,-0.5134730339050293,0.5134730339050293,4.339728832244873,239.67559814453125,241.3274688720703)" opacity="1" style="display: block;"><g opacity="1" transform="matrix(1,0,0,1,0,0)"><path stroke-linecap="round" stroke-linejoin="round" fill-opacity="0" stroke="rgb(7,168,137)" stroke-opacity="1" stroke-width="2.8000000000000003" d=" M3.553999900817871,11.586999893188477 C3.553999900817871,11.586999893188477 7.956999778747559,-9.866999626159668 7.956999778747559,-9.866999626159668 C7.956999778747559,-9.866999626159668 3.553999900817871,-3.8259999752044678 3.553999900817871,-3.8259999752044678 C3.553999900817871,-3.8259999752044678 -1.0700000524520874,-9.229000091552734 -1.0700000524520874,-9.229000091552734 C-1.0700000524520874,-9.229000091552734 -5.693999767303467,-3.8259999752044678 -5.693999767303467,-3.8259999752044678 C-5.693999767303467,-3.8259999752044678 -10.097999572753906,-9.866999626159668 -10.097999572753906,-9.866999626159668 C-10.097999572753906,-9.866999626159668 -5.693999767303467,11.586999893188477 -5.693999767303467,11.586999893188477"></path></g></g><g class="com" style="display: none;"><g><path></path></g><g><path></path></g><g><path></path></g><g><path></path></g><g><path></path></g><g><path></path></g><g><path></path></g><g><path></path></g><g><path></path></g><g><path></path></g><g><path></path></g><g><path></path></g></g></g></svg>