<svg xmlns="http://www.w3.org/2000/svg" xmlns:xlink="http://www.w3.org/1999/xlink" viewBox="0 0 500 500" width="500" height="500" preserveAspectRatio="xMidYMid meet" style="width: 100%; height: 100%; transform: translate3d(0px, 0px, 0px); content-visibility: visible;"><defs><clipPath id="__lottie_element_101"><rect width="500" height="500" x="0" y="0"></rect></clipPath><clipPath id="__lottie_element_104"><path d="M0,0 L500,0 L500,500 L0,500z"></path></clipPath><clipPath id="__lottie_element_108"><path d="M0,0 L500,0 L500,500 L0,500z"></path></clipPath><clipPath id="__lottie_element_112"><path d="M0,0 L500,0 L500,500 L0,500z"></path></clipPath></defs><g clip-path="url(#__lottie_element_101)"><g clip-path="url(#__lottie_element_104)" transform="matrix(1,0,0,1,0,0)" opacity="0" style="display: block;"><g transform="matrix(1,0,0,1,0,0)" opacity="1" style="display: block;"><g opacity="1" transform="matrix(1,0,0,1,268.5220031738281,250)"><path stroke-linecap="round" stroke-linejoin="round" fill-opacity="0" stroke="rgb(18,19,48)" stroke-opacity="1" stroke-width="12" d=" M-18.55299949645996,26.68600082397461 C-18.55299949645996,26.68600082397461 -18.55299949645996,-26.684999465942383 -18.55299949645996,-26.684999465942383 C-18.55299949645996,-26.684999465942383 -18.551000595092773,-26.68600082397461 -18.551000595092773,-26.68600082397461 C-18.551000595092773,-26.68600082397461 1.4220000505447388,-26.68600082397461 1.4220000505447388,-26.68600082397461 C10.883000373840332,-26.68600082397461 18.55299949645996,-19.016000747680664 18.55299949645996,-9.555000305175781 C18.55299949645996,-9.555000305175781 18.55299949645996,-9.555000305175781 18.55299949645996,-9.555000305175781 C18.55299949645996,-0.09399999678134918 10.883000373840332,7.576000213623047 1.4220000505447388,7.576000213623047 C1.4220000505447388,7.576000213623047 -18.551000595092773,7.576000213623047 -18.551000595092773,7.576000213623047"></path></g><g opacity="1" transform="matrix(1,0,0,1,310.2619934082031,250.0489959716797)"><path stroke-linecap="round" stroke-linejoin="round" fill-opacity="0" stroke="rgb(18,19,48)" stroke-opacity="1" stroke-width="12" d=" M0,26.63800048828125 C0,26.63800048828125 0,-26.63800048828125 0,-26.63800048828125"></path></g><g opacity="1" transform="matrix(1,0,0,1,0,0)"><g opacity="1" transform="matrix(1,0,0,1,204.56100463867188,250)"><path stroke-linecap="round" stroke-linejoin="round" fill-opacity="0" stroke="rgb(18,19,48)" stroke-opacity="1" stroke-width="12" d=" M22.572999954223633,26.687000274658203 C22.572999954223633,26.687000274658203 8.914999961853027,-26.687000274658203 8.914999961853027,-26.687000274658203 C8.914999961853027,-26.687000274658203 -7.239999771118164,-26.687000274658203 -7.239999771118164,-26.687000274658203 C-7.239999771118164,-26.687000274658203 -22.572999954223633,26.687000274658203 -22.572999954223633,26.687000274658203"></path></g><g opacity="1" transform="matrix(1,0,0,1,204.75799560546875,264.1520080566406)"><path stroke-linecap="round" stroke-linejoin="round" fill-opacity="0" stroke="rgb(18,19,48)" stroke-opacity="1" stroke-width="12" d=" M-18.889999389648438,0 C-18.889999389648438,0 18.889999389648438,0 18.889999389648438,0"></path></g></g></g><g transform="matrix(1,0,0,1,250,250)" opacity="1" style="display: block;"><g opacity="1" transform="matrix(1,0,0,1,0,0)"><path stroke-linecap="round" stroke-linejoin="round" fill-opacity="0" stroke="rgb(7,168,137)" stroke-opacity="1" stroke-width="12" d=" M0,-106.74600219726562 C58.95399856567383,-106.74600219726562 106.74600219726562,-58.95399856567383 106.74600219726562,0 C106.74600219726562,58.95399856567383 58.95399856567383,106.74600219726562 0,106.74600219726562 C-58.95399856567383,106.74600219726562 -106.74600219726562,58.95399856567383 -106.74600219726562,0 C-106.74600219726562,-58.95399856567383 -58.95399856567383,-106.74600219726562 0,-106.74600219726562z"></path></g></g><g transform="matrix(-0.8498556017875671,0.5270156264305115,-0.5270156264305115,-0.8498556017875671,250,250)" opacity="1" style="display: block;"><g opacity="1" transform="matrix(1,0,0,1,0,0)"><path stroke-linecap="round" stroke-linejoin="round" fill-opacity="0" stroke="rgb(7,168,137)" stroke-opacity="1" stroke-width="12" d=" M167.38099670410156,33.77899932861328 C167.38099670410156,33.77899932861328 157.6490020751953,28.15999984741211 157.6490020751953,28.15999984741211 C159.27099609375,19.01799964904785 160.11900329589844,9.607999801635742 160.11900329589844,0 C160.11900329589844,-9.607999801635742 159.27099609375,-19.01799964904785 157.6490020751953,-28.15999984741211 C157.6490020751953,-28.15999984741211 167.38099670410156,-33.77899932861328 167.38099670410156,-33.77899932861328 C179.27999877929688,-40.64899826049805 183.35699462890625,-55.86399841308594 176.48699951171875,-67.76300048828125 C176.48699951171875,-67.76300048828125 146.92799377441406,-118.95999908447266 146.92799377441406,-118.95999908447266 C140.05799865722656,-130.85800170898438 124.84300231933594,-134.93499755859375 112.94400024414062,-128.0659942626953 C112.94400024414062,-128.0659942626953 103.18199920654297,-122.43000030517578 103.18199920654297,-122.43000030517578 C88.86199951171875,-134.51100158691406 72.39900207519531,-144.1280059814453 54.4370002746582,-150.62100219726562 C54.4370002746582,-150.62100219726562 54.4370002746582,-161.84500122070312 54.4370002746582,-161.84500122070312 C54.4370002746582,-175.5850067138672 43.29899978637695,-186.72300720214844 29.55900001525879,-186.72300720214844 C29.55900001525879,-186.72300720214844 -29.55900001525879,-186.72300720214844 -29.55900001525879,-186.72300720214844 C-43.29899978637695,-186.72300720214844 -54.4370002746582,-175.5850067138672 -54.4370002746582,-161.84500122070312 C-54.4370002746582,-161.84500122070312 -54.4370002746582,-150.62100219726562 -54.4370002746582,-150.62100219726562 C-72.39900207519531,-144.1280059814453 -88.86199951171875,-134.51100158691406 -103.18199920654297,-122.43000030517578 C-103.18199920654297,-122.43000030517578 -112.94400024414062,-128.0659942626953 -112.94400024414062,-128.0659942626953 C-124.84300231933594,-134.93499755859375 -140.05799865722656,-130.85800170898438 -146.92799377441406,-118.95999908447266 C-146.92799377441406,-118.95999908447266 -176.48699951171875,-67.76300048828125 -176.48699951171875,-67.76300048828125 C-183.35699462890625,-55.86399841308594 -179.27999877929688,-40.64899826049805 -167.38099670410156,-33.77899932861328 C-167.38099670410156,-33.77899932861328 -157.6490020751953,-28.15999984741211 -157.6490020751953,-28.15999984741211 C-159.27099609375,-19.01799964904785 -160.11900329589844,-9.607999801635742 -160.11900329589844,0 C-160.11900329589844,9.607999801635742 -159.27099609375,19.01799964904785 -157.6490020751953,28.15999984741211 C-157.6490020751953,28.15999984741211 -167.38099670410156,33.77899932861328 -167.38099670410156,33.77899932861328 C-179.27999877929688,40.64899826049805 -183.35699462890625,55.86399841308594 -176.48699951171875,67.76300048828125 C-176.48699951171875,67.76300048828125 -146.92799377441406,118.95999908447266 -146.92799377441406,118.95999908447266 C-140.05799865722656,130.85899353027344 -124.84300231933594,134.93600463867188 -112.94400024414062,128.0659942626953 C-112.94400024414062,128.0659942626953 -103.18199920654297,122.43000030517578 -103.18199920654297,122.43000030517578 C-88.86199951171875,134.51100158691406 -72.39900207519531,144.1280059814453 -54.4370002746582,150.62100219726562 C-54.4370002746582,150.62100219726562 -54.4370002746582,161.84500122070312 -54.4370002746582,161.84500122070312 C-54.4370002746582,175.5850067138672 -43.29899978637695,186.72300720214844 -29.55900001525879,186.72300720214844 C-29.55900001525879,186.72300720214844 29.55900001525879,186.72300720214844 29.55900001525879,186.72300720214844 C43.29899978637695,186.72300720214844 54.4370002746582,175.5850067138672 54.4370002746582,161.84500122070312 C54.4370002746582,161.84500122070312 54.4370002746582,150.62100219726562 54.4370002746582,150.62100219726562 C72.39900207519531,144.1280059814453 88.86199951171875,134.51100158691406 103.18199920654297,122.43000030517578 C103.18199920654297,122.43000030517578 112.94400024414062,128.0659942626953 112.94400024414062,128.0659942626953 C124.84300231933594,134.93600463867188 140.05799865722656,130.85899353027344 146.92799377441406,118.95999908447266 C146.92799377441406,118.95999908447266 176.48699951171875,67.76300048828125 176.48699951171875,67.76300048828125 C183.35699462890625,55.86399841308594 179.27999877929688,40.64899826049805 167.38099670410156,33.77899932861328z"></path></g></g></g><g clip-path="url(#__lottie_element_108)" transform="matrix(1,0,0,1,0,0)" opacity="0" style="display: block;"><g transform="matrix(1,0,0,1,0,0)" opacity="1" style="display: block;"><g opacity="1" transform="matrix(1,0,0,1,268.5220031738281,250)"><path stroke-linecap="round" stroke-linejoin="round" fill-opacity="0" stroke="rgb(18,19,48)" stroke-opacity="1" stroke-width="12" d=" M-18.55299949645996,26.68600082397461 C-18.55299949645996,26.68600082397461 -18.55299949645996,-26.684999465942383 -18.55299949645996,-26.684999465942383 C-18.55299949645996,-26.684999465942383 -18.551000595092773,-26.68600082397461 -18.551000595092773,-26.68600082397461 C-18.551000595092773,-26.68600082397461 1.4220000505447388,-26.68600082397461 1.4220000505447388,-26.68600082397461 C10.883000373840332,-26.68600082397461 18.55299949645996,-19.016000747680664 18.55299949645996,-9.555000305175781 C18.55299949645996,-9.555000305175781 18.55299949645996,-9.555000305175781 18.55299949645996,-9.555000305175781 C18.55299949645996,-0.09399999678134918 10.883000373840332,7.576000213623047 1.4220000505447388,7.576000213623047 C1.4220000505447388,7.576000213623047 -18.551000595092773,7.576000213623047 -18.551000595092773,7.576000213623047"></path></g><g opacity="1" transform="matrix(1,0,0,1,310.2619934082031,250.0489959716797)"><path stroke-linecap="round" stroke-linejoin="round" fill-opacity="0" stroke="rgb(18,19,48)" stroke-opacity="1" stroke-width="12" d=" M0,26.63800048828125 C0,26.63800048828125 0,-26.63800048828125 0,-26.63800048828125"></path></g><g opacity="1" transform="matrix(1,0,0,1,0,0)"><g opacity="1" transform="matrix(1,0,0,1,204.56100463867188,250)"><path stroke-linecap="round" stroke-linejoin="round" fill-opacity="0" stroke="rgb(18,19,48)" stroke-opacity="1" stroke-width="12" d=" M22.572999954223633,26.687000274658203 C22.572999954223633,26.687000274658203 8.914999961853027,-26.687000274658203 8.914999961853027,-26.687000274658203 C8.914999961853027,-26.687000274658203 -7.239999771118164,-26.687000274658203 -7.239999771118164,-26.687000274658203 C-7.239999771118164,-26.687000274658203 -22.572999954223633,26.687000274658203 -22.572999954223633,26.687000274658203"></path></g><g opacity="1" transform="matrix(1,0,0,1,204.75799560546875,264.1520080566406)"><path stroke-linecap="round" stroke-linejoin="round" fill-opacity="0" stroke="rgb(18,19,48)" stroke-opacity="1" stroke-width="12" d=" M-18.889999389648438,0 C-18.889999389648438,0 18.889999389648438,0 18.889999389648438,0"></path></g></g></g><g transform="matrix(1,0,0,1,250,250)" opacity="1" style="display: block;"><g opacity="1" transform="matrix(1,0,0,1,0,0)"><path stroke-linecap="round" stroke-linejoin="round" fill-opacity="0" stroke="rgb(7,168,137)" stroke-opacity="1" stroke-width="12" d=" M0,-106.74600219726562 C58.95399856567383,-106.74600219726562 106.74600219726562,-58.95399856567383 106.74600219726562,0 C106.74600219726562,58.95399856567383 58.95399856567383,106.74600219726562 0,106.74600219726562 C-58.95399856567383,106.74600219726562 -106.74600219726562,58.95399856567383 -106.74600219726562,0 C-106.74600219726562,-58.95399856567383 -58.95399856567383,-106.74600219726562 0,-106.74600219726562z"></path></g></g><g transform="matrix(-0.9970164895057678,-0.07718861848115921,0.07718861848115921,-0.9970164895057678,250,250)" opacity="1" style="display: block;"><g opacity="1" transform="matrix(1,0,0,1,0,0)"><path stroke-linecap="round" stroke-linejoin="round" fill-opacity="0" stroke="rgb(7,168,137)" stroke-opacity="1" stroke-width="12" d=" M167.38099670410156,33.77899932861328 C167.38099670410156,33.77899932861328 157.6490020751953,28.15999984741211 157.6490020751953,28.15999984741211 C159.27099609375,19.01799964904785 160.11900329589844,9.607999801635742 160.11900329589844,0 C160.11900329589844,-9.607999801635742 159.27099609375,-19.01799964904785 157.6490020751953,-28.15999984741211 C157.6490020751953,-28.15999984741211 167.38099670410156,-33.77899932861328 167.38099670410156,-33.77899932861328 C179.27999877929688,-40.64899826049805 183.35699462890625,-55.86399841308594 176.48699951171875,-67.76300048828125 C176.48699951171875,-67.76300048828125 146.92799377441406,-118.95999908447266 146.92799377441406,-118.95999908447266 C140.05799865722656,-130.85800170898438 124.84300231933594,-134.93499755859375 112.94400024414062,-128.0659942626953 C112.94400024414062,-128.0659942626953 103.18199920654297,-122.43000030517578 103.18199920654297,-122.43000030517578 C88.86199951171875,-134.51100158691406 72.39900207519531,-144.1280059814453 54.4370002746582,-150.62100219726562 C54.4370002746582,-150.62100219726562 54.4370002746582,-161.84500122070312 54.4370002746582,-161.84500122070312 C54.4370002746582,-175.5850067138672 43.29899978637695,-186.72300720214844 29.55900001525879,-186.72300720214844 C29.55900001525879,-186.72300720214844 -29.55900001525879,-186.72300720214844 -29.55900001525879,-186.72300720214844 C-43.29899978637695,-186.72300720214844 -54.4370002746582,-175.5850067138672 -54.4370002746582,-161.84500122070312 C-54.4370002746582,-161.84500122070312 -54.4370002746582,-150.62100219726562 -54.4370002746582,-150.62100219726562 C-72.39900207519531,-144.1280059814453 -88.86199951171875,-134.51100158691406 -103.18199920654297,-122.43000030517578 C-103.18199920654297,-122.43000030517578 -112.94400024414062,-128.0659942626953 -112.94400024414062,-128.0659942626953 C-124.84300231933594,-134.93499755859375 -140.05799865722656,-130.85800170898438 -146.92799377441406,-118.95999908447266 C-146.92799377441406,-118.95999908447266 -176.48699951171875,-67.76300048828125 -176.48699951171875,-67.76300048828125 C-183.35699462890625,-55.86399841308594 -179.27999877929688,-40.64899826049805 -167.38099670410156,-33.77899932861328 C-167.38099670410156,-33.77899932861328 -157.6490020751953,-28.15999984741211 -157.6490020751953,-28.15999984741211 C-159.27099609375,-19.01799964904785 -160.11900329589844,-9.607999801635742 -160.11900329589844,0 C-160.11900329589844,9.607999801635742 -159.27099609375,19.01799964904785 -157.6490020751953,28.15999984741211 C-157.6490020751953,28.15999984741211 -167.38099670410156,33.77899932861328 -167.38099670410156,33.77899932861328 C-179.27999877929688,40.64899826049805 -183.35699462890625,55.86399841308594 -176.48699951171875,67.76300048828125 C-176.48699951171875,67.76300048828125 -146.92799377441406,118.95999908447266 -146.92799377441406,118.95999908447266 C-140.05799865722656,130.85899353027344 -124.84300231933594,134.93600463867188 -112.94400024414062,128.0659942626953 C-112.94400024414062,128.0659942626953 -103.18199920654297,122.43000030517578 -103.18199920654297,122.43000030517578 C-88.86199951171875,134.51100158691406 -72.39900207519531,144.1280059814453 -54.4370002746582,150.62100219726562 C-54.4370002746582,150.62100219726562 -54.4370002746582,161.84500122070312 -54.4370002746582,161.84500122070312 C-54.4370002746582,175.5850067138672 -43.29899978637695,186.72300720214844 -29.55900001525879,186.72300720214844 C-29.55900001525879,186.72300720214844 29.55900001525879,186.72300720214844 29.55900001525879,186.72300720214844 C43.29899978637695,186.72300720214844 54.4370002746582,175.5850067138672 54.4370002746582,161.84500122070312 C54.4370002746582,161.84500122070312 54.4370002746582,150.62100219726562 54.4370002746582,150.62100219726562 C72.39900207519531,144.1280059814453 88.86199951171875,134.51100158691406 103.18199920654297,122.43000030517578 C103.18199920654297,122.43000030517578 112.94400024414062,128.0659942626953 112.94400024414062,128.0659942626953 C124.84300231933594,134.93600463867188 140.05799865722656,130.85899353027344 146.92799377441406,118.95999908447266 C146.92799377441406,118.95999908447266 176.48699951171875,67.76300048828125 176.48699951171875,67.76300048828125 C183.35699462890625,55.86399841308594 179.27999877929688,40.64899826049805 167.38099670410156,33.77899932861328z"></path></g></g></g><g clip-path="url(#__lottie_element_112)" transform="matrix(1,0,0,1,0,0)" opacity="1" style="display: block;"><g transform="matrix(1,0,0,1,0,0)" opacity="1" style="display: block;"><g opacity="1" transform="matrix(1,0,0,1,268.5220031738281,250)"><path stroke-linecap="round" stroke-linejoin="round" fill-opacity="0" stroke="rgb(18,19,48)" stroke-opacity="1" stroke-width="12" d=" M-18.55299949645996,26.68600082397461 C-18.55299949645996,26.68600082397461 -18.55299949645996,-26.684999465942383 -18.55299949645996,-26.684999465942383 C-18.55299949645996,-26.684999465942383 -18.551000595092773,-26.68600082397461 -18.551000595092773,-26.68600082397461 C-18.551000595092773,-26.68600082397461 1.4220000505447388,-26.68600082397461 1.4220000505447388,-26.68600082397461 C10.883000373840332,-26.68600082397461 18.55299949645996,-19.016000747680664 18.55299949645996,-9.555000305175781 C18.55299949645996,-9.555000305175781 18.55299949645996,-9.555000305175781 18.55299949645996,-9.555000305175781 C18.55299949645996,-0.09399999678134918 10.883000373840332,7.576000213623047 1.4220000505447388,7.576000213623047 C1.4220000505447388,7.576000213623047 -18.551000595092773,7.576000213623047 -18.551000595092773,7.576000213623047"></path></g><g opacity="1" transform="matrix(1,0,0,1,310.2619934082031,250.0489959716797)"><path stroke-linecap="round" stroke-linejoin="round" fill-opacity="0" stroke="rgb(18,19,48)" stroke-opacity="1" stroke-width="12" d=" M0,26.63800048828125 C0,26.63800048828125 0,-26.63800048828125 0,-26.63800048828125"></path></g><g opacity="1" transform="matrix(1,0,0,1,0,0)"><g opacity="1" transform="matrix(1,0,0,1,204.56100463867188,250)"><path stroke-linecap="round" stroke-linejoin="round" fill-opacity="0" stroke="rgb(18,19,48)" stroke-opacity="1" stroke-width="12" d=" M22.572999954223633,26.687000274658203 C22.572999954223633,26.687000274658203 8.914999961853027,-26.687000274658203 8.914999961853027,-26.687000274658203 C8.914999961853027,-26.687000274658203 -7.239999771118164,-26.687000274658203 -7.239999771118164,-26.687000274658203 C-7.239999771118164,-26.687000274658203 -22.572999954223633,26.687000274658203 -22.572999954223633,26.687000274658203"></path></g><g opacity="1" transform="matrix(1,0,0,1,204.75799560546875,264.1520080566406)"><path stroke-linecap="round" stroke-linejoin="round" fill-opacity="0" stroke="rgb(18,19,48)" stroke-opacity="1" stroke-width="12" d=" M-18.889999389648438,0 C-18.889999389648438,0 18.889999389648438,0 18.889999389648438,0"></path></g></g></g><g transform="matrix(1,0,0,1,250,250)" opacity="1" style="display: block;"><g opacity="1" transform="matrix(1,0,0,1,0,0)"><path stroke-linecap="round" stroke-linejoin="round" fill-opacity="0" stroke="rgb(7,168,137)" stroke-opacity="1" stroke-width="12" d=" M0,-106.74600219726562 C58.95399856567383,-106.74600219726562 106.74600219726562,-58.95399856567383 106.74600219726562,0 C106.74600219726562,58.95399856567383 58.95399856567383,106.74600219726562 0,106.74600219726562 C-58.95399856567383,106.74600219726562 -106.74600219726562,58.95399856567383 -106.74600219726562,0 C-106.74600219726562,-58.95399856567383 -58.95399856567383,-106.74600219726562 0,-106.74600219726562z"></path></g></g><g transform="matrix(-0.9964793920516968,0.08383775502443314,-0.08383775502443314,-0.9964793920516968,250,250)" opacity="1" style="display: block;"><g opacity="1" transform="matrix(1,0,0,1,0,0)"><path stroke-linecap="round" stroke-linejoin="round" fill-opacity="0" stroke="rgb(7,168,137)" stroke-opacity="1" stroke-width="12" d=" M167.38099670410156,33.77899932861328 C167.38099670410156,33.77899932861328 157.6490020751953,28.15999984741211 157.6490020751953,28.15999984741211 C159.27099609375,19.01799964904785 160.11900329589844,9.607999801635742 160.11900329589844,0 C160.11900329589844,-9.607999801635742 159.27099609375,-19.01799964904785 157.6490020751953,-28.15999984741211 C157.6490020751953,-28.15999984741211 167.38099670410156,-33.77899932861328 167.38099670410156,-33.77899932861328 C179.27999877929688,-40.64899826049805 183.35699462890625,-55.86399841308594 176.48699951171875,-67.76300048828125 C176.48699951171875,-67.76300048828125 146.92799377441406,-118.95999908447266 146.92799377441406,-118.95999908447266 C140.05799865722656,-130.85800170898438 124.84300231933594,-134.93499755859375 112.94400024414062,-128.0659942626953 C112.94400024414062,-128.0659942626953 103.18199920654297,-122.43000030517578 103.18199920654297,-122.43000030517578 C88.86199951171875,-134.51100158691406 72.39900207519531,-144.1280059814453 54.4370002746582,-150.62100219726562 C54.4370002746582,-150.62100219726562 54.4370002746582,-161.84500122070312 54.4370002746582,-161.84500122070312 C54.4370002746582,-175.5850067138672 43.29899978637695,-186.72300720214844 29.55900001525879,-186.72300720214844 C29.55900001525879,-186.72300720214844 -29.55900001525879,-186.72300720214844 -29.55900001525879,-186.72300720214844 C-43.29899978637695,-186.72300720214844 -54.4370002746582,-175.5850067138672 -54.4370002746582,-161.84500122070312 C-54.4370002746582,-161.84500122070312 -54.4370002746582,-150.62100219726562 -54.4370002746582,-150.62100219726562 C-72.39900207519531,-144.1280059814453 -88.86199951171875,-134.51100158691406 -103.18199920654297,-122.43000030517578 C-103.18199920654297,-122.43000030517578 -112.94400024414062,-128.0659942626953 -112.94400024414062,-128.0659942626953 C-124.84300231933594,-134.93499755859375 -140.05799865722656,-130.85800170898438 -146.92799377441406,-118.95999908447266 C-146.92799377441406,-118.95999908447266 -176.48699951171875,-67.76300048828125 -176.48699951171875,-67.76300048828125 C-183.35699462890625,-55.86399841308594 -179.27999877929688,-40.64899826049805 -167.38099670410156,-33.77899932861328 C-167.38099670410156,-33.77899932861328 -157.6490020751953,-28.15999984741211 -157.6490020751953,-28.15999984741211 C-159.27099609375,-19.01799964904785 -160.11900329589844,-9.607999801635742 -160.11900329589844,0 C-160.11900329589844,9.607999801635742 -159.27099609375,19.01799964904785 -157.6490020751953,28.15999984741211 C-157.6490020751953,28.15999984741211 -167.38099670410156,33.77899932861328 -167.38099670410156,33.77899932861328 C-179.27999877929688,40.64899826049805 -183.35699462890625,55.86399841308594 -176.48699951171875,67.76300048828125 C-176.48699951171875,67.76300048828125 -146.92799377441406,118.95999908447266 -146.92799377441406,118.95999908447266 C-140.05799865722656,130.85899353027344 -124.84300231933594,134.93600463867188 -112.94400024414062,128.0659942626953 C-112.94400024414062,128.0659942626953 -103.18199920654297,122.43000030517578 -103.18199920654297,122.43000030517578 C-88.86199951171875,134.51100158691406 -72.39900207519531,144.1280059814453 -54.4370002746582,150.62100219726562 C-54.4370002746582,150.62100219726562 -54.4370002746582,161.84500122070312 -54.4370002746582,161.84500122070312 C-54.4370002746582,175.5850067138672 -43.29899978637695,186.72300720214844 -29.55900001525879,186.72300720214844 C-29.55900001525879,186.72300720214844 29.55900001525879,186.72300720214844 29.55900001525879,186.72300720214844 C43.29899978637695,186.72300720214844 54.4370002746582,175.5850067138672 54.4370002746582,161.84500122070312 C54.4370002746582,161.84500122070312 54.4370002746582,150.62100219726562 54.4370002746582,150.62100219726562 C72.39900207519531,144.1280059814453 88.86199951171875,134.51100158691406 103.18199920654297,122.43000030517578 C103.18199920654297,122.43000030517578 112.94400024414062,128.0659942626953 112.94400024414062,128.0659942626953 C124.84300231933594,134.93600463867188 140.05799865722656,130.85899353027344 146.92799377441406,118.95999908447266 C146.92799377441406,118.95999908447266 176.48699951171875,67.76300048828125 176.48699951171875,67.76300048828125 C183.35699462890625,55.86399841308594 179.27999877929688,40.64899826049805 167.38099670410156,33.77899932861328z"></path></g></g></g><g style="display: none;"><path></path></g></g></svg>