<svg xmlns="http://www.w3.org/2000/svg" xmlns:xlink="http://www.w3.org/1999/xlink" viewBox="0 0 500 500" width="500" height="500" preserveAspectRatio="xMidYMid meet" style="width: 100%; height: 100%; transform: translate3d(0px, 0px, 0px); content-visibility: visible;"><defs><clipPath id="__lottie_element_2"><rect width="500" height="500" x="0" y="0"></rect></clipPath><clipPath id="__lottie_element_5"><path d="M0,0 L500,0 L500,500 L0,500z"></path></clipPath><clipPath id="__lottie_element_9"><path d="M0,0 L500,0 L500,500 L0,500z"></path></clipPath></defs><g clip-path="url(#__lottie_element_2)"><g clip-path="url(#__lottie_element_5)" transform="matrix(1,0,0,1,0,0)" opacity="0" style="display: block;"><g transform="matrix(1,0,0,1,162.86599731445312,352.2560119628906)" opacity="1" style="display: block;"><g opacity="1" transform="matrix(1,0,0,1,0,0)"><path stroke-linecap="round" stroke-linejoin="round" fill-opacity="0" stroke="rgb(7,168,137)" stroke-opacity="1" stroke-width="12" d=" M44.75899887084961,30.834999084472656 C44.75899887084961,30.834999084472656 -44.75899887084961,30.834999084472656 -44.75899887084961,30.834999084472656 C-52.979000091552734,30.834999084472656 -59.641998291015625,24.172000885009766 -59.641998291015625,15.95199966430664 C-59.641998291015625,15.95199966430664 -59.641998291015625,-15.95199966430664 -59.641998291015625,-15.95199966430664 C-59.641998291015625,-24.172000885009766 -52.979000091552734,-30.834999084472656 -44.75899887084961,-30.834999084472656 C-44.75899887084961,-30.834999084472656 44.75899887084961,-30.834999084472656 44.75899887084961,-30.834999084472656 C52.979000091552734,-30.834999084472656 59.641998291015625,-24.172000885009766 59.641998291015625,-15.95199966430664 C59.641998291015625,-15.95199966430664 59.641998291015625,15.95199966430664 59.641998291015625,15.95199966430664 C59.641998291015625,24.172000885009766 52.979000091552734,30.834999084472656 44.75899887084961,30.834999084472656z"></path></g></g><g transform="matrix(1,0,0,1,337.37701416015625,352.2560119628906)" opacity="1" style="display: block;"><g opacity="1" transform="matrix(1,0,0,1,0,0)"><path stroke-linecap="round" stroke-linejoin="round" fill-opacity="0" stroke="rgb(7,168,137)" stroke-opacity="1" stroke-width="12" d=" M44.51599884033203,30.834999084472656 C44.51599884033203,30.834999084472656 -44.51599884033203,30.834999084472656 -44.51599884033203,30.834999084472656 C-52.736000061035156,30.834999084472656 -59.39899826049805,24.172000885009766 -59.39899826049805,15.95199966430664 C-59.39899826049805,15.95199966430664 -59.39899826049805,-15.95199966430664 -59.39899826049805,-15.95199966430664 C-59.39899826049805,-24.172000885009766 -52.736000061035156,-30.834999084472656 -44.51599884033203,-30.834999084472656 C-44.51599884033203,-30.834999084472656 44.51599884033203,-30.834999084472656 44.51599884033203,-30.834999084472656 C52.736000061035156,-30.834999084472656 59.39899826049805,-24.172000885009766 59.39899826049805,-15.95199966430664 C59.39899826049805,-15.95199966430664 59.39899826049805,15.95199966430664 59.39899826049805,15.95199966430664 C59.39899826049805,24.172000885009766 52.736000061035156,30.834999084472656 44.51599884033203,30.834999084472656z"></path></g></g><g transform="matrix(1,0,0,1,0,0)" opacity="1" style="display: block;"><g opacity="1" transform="matrix(1,0,0,1,250,165.322998046875)"><path stroke-linecap="round" stroke-linejoin="round" fill-opacity="0" stroke="rgb(7,168,137)" stroke-opacity="1" stroke-width="12" d=" M145.23599243164062,48.167999267578125 C145.23599243164062,48.167999267578125 -145.23599243164062,48.167999267578125 -145.23599243164062,48.167999267578125 C-153.45599365234375,48.167999267578125 -160.11900329589844,41.505001068115234 -160.11900329589844,33.28499984741211 C-160.11900329589844,33.28499984741211 -160.11900329589844,-33.28499984741211 -160.11900329589844,-33.28499984741211 C-160.11900329589844,-41.505001068115234 -153.45599365234375,-48.167999267578125 -145.23599243164062,-48.167999267578125 C-145.23599243164062,-48.167999267578125 145.23599243164062,-48.167999267578125 145.23599243164062,-48.167999267578125 C153.45599365234375,-48.167999267578125 160.11900329589844,-41.505001068115234 160.11900329589844,-33.28499984741211 C160.11900329589844,-33.28499984741211 160.11900329589844,33.28499984741211 160.11900329589844,33.28499984741211 C160.11900329589844,41.505001068115234 153.45599365234375,48.167999267578125 145.23599243164062,48.167999267578125z"></path></g><g opacity="1" transform="matrix(1,0,0,1,139.17300415039062,165.322998046875)"><path stroke-linecap="round" stroke-linejoin="round" fill-opacity="0" stroke="rgb(18,19,48)" stroke-opacity="1" stroke-width="12" d=" M-17.461000442504883,0 C-17.461000442504883,9.642999649047852 -9.642999649047852,17.461000442504883 0,17.461000442504883 C0.12600000202655792,17.461000442504883 0.25200000405311584,17.459999084472656 0.3779999911785126,17.457000732421875 C9.847000122070312,17.256000518798828 17.461000442504883,9.517000198364258 17.461000442504883,0 C17.461000442504883,-9.517999649047852 9.845999717712402,-17.256999969482422 0.37599998712539673,-17.457000732421875 C0.25099998712539673,-17.459999084472656 0.12600000202655792,-17.461000442504883 0,-17.461000442504883 C-9.642999649047852,-17.461000442504883 -17.461000442504883,-9.642999649047852 -17.461000442504883,0z"></path></g></g><g transform="matrix(1,0,0,1,199.34800720214844,269.343994140625)" opacity="1" style="display: block;"><g opacity="1" transform="matrix(1,0,0,1,0,0)"><path stroke-linecap="round" stroke-linejoin="round" fill-opacity="0" stroke="rgb(18,19,48)" stroke-opacity="1" stroke-width="12" d="M0 0"></path></g><g opacity="1" transform="matrix(1,0,0,1,0,0)"><path stroke-linecap="round" stroke-linejoin="round" fill-opacity="0" stroke="rgb(18,19,48)" stroke-opacity="1" stroke-width="12" d=" M115.822998046875,26.815000534057617 C115.822998046875,26.815000534057617 87.45600128173828,-26.558000564575195 87.45600128173828,-26.558000564575195 M14.182999610900879,-26.687000274658203 C14.182999610900879,-26.687000274658203 -14.182999610900879,26.687000274658203 -14.182999610900879,26.687000274658203"></path></g></g><g transform="matrix(1,0,0,1,199.34800720214844,269.343994140625)" opacity="1" style="display: block;"><g opacity="1" transform="matrix(1,0,0,1,0,0)"><path stroke-linecap="round" stroke-linejoin="round" fill-opacity="0" stroke="rgb(18,19,48)" stroke-opacity="1" stroke-width="12" d="M0 0"></path></g></g><g transform="matrix(1,0,0,1,0,0)" opacity="1" style="display: block;"><g opacity="0" transform="matrix(1,0,0,1,238.60400390625,151.07400512695312)"><path stroke-linecap="round" stroke-linejoin="round" fill-opacity="0" stroke-dasharray=" 0.25 25" stroke-dashoffset="0" stroke="rgb(18,19,48)" stroke-opacity="1" stroke-width="14" d=" M-0.08399999886751175,0 C-0.08399999886751175,0 0.08399999886751175,0 0.08399999886751175,0"></path></g><g opacity="1" transform="matrix(1,0,0,1,265.88299560546875,151.07400512695312)"><path stroke-linecap="round" stroke-linejoin="round" fill-opacity="0" stroke-dasharray=" 0.25 25" stroke-dashoffset="0" stroke="rgb(18,19,48)" stroke-opacity="1" stroke-width="14" d=" M-0.08399999886751175,0 C-0.08399999886751175,0 0.08399999886751175,0 0.08399999886751175,0"></path></g><g opacity="1" transform="matrix(1,0,0,1,293.1610107421875,151.07400512695312)"><path stroke-linecap="round" stroke-linejoin="round" fill-opacity="0" stroke-dasharray=" 0.25 25" stroke-dashoffset="0" stroke="rgb(18,19,48)" stroke-opacity="1" stroke-width="14" d=" M-0.08399999886751175,0 C-0.08399999886751175,0 0.08399999886751175,0 0.08399999886751175,0"></path></g><g opacity="1" transform="matrix(1,0,0,1,320.44000244140625,151.07400512695312)"><path stroke-linecap="round" stroke-linejoin="round" fill-opacity="0" stroke-dasharray=" 0.25 25" stroke-dashoffset="0" stroke="rgb(18,19,48)" stroke-opacity="1" stroke-width="14" d=" M-0.08399999886751175,0 C-0.08399999886751175,0 0.08399999886751175,0 0.08399999886751175,0"></path></g><g opacity="1" transform="matrix(1,0,0,1,347.718994140625,151.07400512695312)"><path stroke-linecap="round" stroke-linejoin="round" fill-opacity="0" stroke-dasharray=" 0.25 25" stroke-dashoffset="0" stroke="rgb(18,19,48)" stroke-opacity="1" stroke-width="14" d=" M-0.08399999886751175,0 C-0.08399999886751175,0 0.08399999886751175,0 0.08399999886751175,0"></path></g><g opacity="1" transform="matrix(1,0,0,1,374.99798583984375,151.07400512695312)"><path stroke-linecap="round" stroke-linejoin="round" fill-opacity="0" stroke-dasharray=" 0.25 25" stroke-dashoffset="0" stroke="rgb(18,19,48)" stroke-opacity="1" stroke-width="14" d=" M-0.08399999886751175,0 C-0.08399999886751175,0 0.08399999886751175,0 0.08399999886751175,0"></path></g><g opacity="1" transform="matrix(1,0,0,1,238.60400390625,179.6739959716797)"><path stroke-linecap="round" stroke-linejoin="round" fill-opacity="0" stroke-dasharray=" 0.25 25" stroke-dashoffset="0" stroke="rgb(18,19,48)" stroke-opacity="1" stroke-width="14" d=" M-0.08399999886751175,0 C-0.08399999886751175,0 0.08399999886751175,0 0.08399999886751175,0"></path></g><g opacity="1" transform="matrix(1,0,0,1,265.88299560546875,179.6739959716797)"><path stroke-linecap="round" stroke-linejoin="round" fill-opacity="0" stroke-dasharray=" 0.25 25" stroke-dashoffset="0" stroke="rgb(18,19,48)" stroke-opacity="1" stroke-width="14" d=" M-0.08399999886751175,0 C-0.08399999886751175,0 0.08399999886751175,0 0.08399999886751175,0"></path></g><g opacity="1" transform="matrix(1,0,0,1,293.1610107421875,179.6739959716797)"><path stroke-linecap="round" stroke-linejoin="round" fill-opacity="0" stroke-dasharray=" 0.25 25" stroke-dashoffset="0" stroke="rgb(18,19,48)" stroke-opacity="1" stroke-width="14" d=" M-0.08399999886751175,0 C-0.08399999886751175,0 0.08399999886751175,0 0.08399999886751175,0"></path></g><g opacity="1" transform="matrix(1,0,0,1,320.44000244140625,179.6739959716797)"><path stroke-linecap="round" stroke-linejoin="round" fill-opacity="0" stroke-dasharray=" 0.25 25" stroke-dashoffset="0" stroke="rgb(18,19,48)" stroke-opacity="1" stroke-width="14" d=" M-0.08399999886751175,0 C-0.08399999886751175,0 0.08399999886751175,0 0.08399999886751175,0"></path></g><g opacity="1" transform="matrix(1,0,0,1,347.718994140625,179.6739959716797)"><path stroke-linecap="round" stroke-linejoin="round" fill-opacity="0" stroke-dasharray=" 0.25 25" stroke-dashoffset="0" stroke="rgb(18,19,48)" stroke-opacity="1" stroke-width="14" d=" M-0.08399999886751175,0 C-0.08399999886751175,0 0.08399999886751175,0 0.08399999886751175,0"></path></g><g opacity="0" transform="matrix(1,0,0,1,374.99798583984375,179.6739959716797)"><path stroke-linecap="round" stroke-linejoin="round" fill-opacity="0" stroke-dasharray=" 0.25 25" stroke-dashoffset="0" stroke="rgb(18,19,48)" stroke-opacity="1" stroke-width="14" d=" M-0.08399999886751175,0 C-0.08399999886751175,0 0.08399999886751175,0 0.08399999886751175,0"></path></g></g></g><g clip-path="url(#__lottie_element_9)" transform="matrix(1,0,0,1,0,0)" opacity="1" style="display: block;"><g transform="matrix(1,0,0,1,141.7936553955078,352.2560119628906)" opacity="1" style="display: block;"><g opacity="1" transform="matrix(1,0,0,1,0,0)"><path stroke-linecap="round" stroke-linejoin="round" fill-opacity="0" stroke="rgb(7,168,137)" stroke-opacity="1" stroke-width="12" d=" M44.75899887084961,30.834999084472656 C44.75899887084961,30.834999084472656 -44.75899887084961,30.834999084472656 -44.75899887084961,30.834999084472656 C-52.979000091552734,30.834999084472656 -59.641998291015625,24.172000885009766 -59.641998291015625,15.95199966430664 C-59.641998291015625,15.95199966430664 -59.641998291015625,-15.95199966430664 -59.641998291015625,-15.95199966430664 C-59.641998291015625,-24.172000885009766 -52.979000091552734,-30.834999084472656 -44.75899887084961,-30.834999084472656 C-44.75899887084961,-30.834999084472656 44.75899887084961,-30.834999084472656 44.75899887084961,-30.834999084472656 C52.979000091552734,-30.834999084472656 59.641998291015625,-24.172000885009766 59.641998291015625,-15.95199966430664 C59.641998291015625,-15.95199966430664 59.641998291015625,15.95199966430664 59.641998291015625,15.95199966430664 C59.641998291015625,24.172000885009766 52.979000091552734,30.834999084472656 44.75899887084961,30.834999084472656z"></path></g></g><g transform="matrix(1,0,0,1,358.4493408203125,352.2560119628906)" opacity="1" style="display: block;"><g opacity="1" transform="matrix(1,0,0,1,0,0)"><path stroke-linecap="round" stroke-linejoin="round" fill-opacity="0" stroke="rgb(7,168,137)" stroke-opacity="1" stroke-width="12" d=" M44.51599884033203,30.834999084472656 C44.51599884033203,30.834999084472656 -44.51599884033203,30.834999084472656 -44.51599884033203,30.834999084472656 C-52.736000061035156,30.834999084472656 -59.39899826049805,24.172000885009766 -59.39899826049805,15.95199966430664 C-59.39899826049805,15.95199966430664 -59.39899826049805,-15.95199966430664 -59.39899826049805,-15.95199966430664 C-59.39899826049805,-24.172000885009766 -52.736000061035156,-30.834999084472656 -44.51599884033203,-30.834999084472656 C-44.51599884033203,-30.834999084472656 44.51599884033203,-30.834999084472656 44.51599884033203,-30.834999084472656 C52.736000061035156,-30.834999084472656 59.39899826049805,-24.172000885009766 59.39899826049805,-15.95199966430664 C59.39899826049805,-15.95199966430664 59.39899826049805,15.95199966430664 59.39899826049805,15.95199966430664 C59.39899826049805,24.172000885009766 52.736000061035156,30.834999084472656 44.51599884033203,30.834999084472656z"></path></g></g><g transform="matrix(1,0,0,1,0,0)" opacity="1" style="display: block;"><g opacity="1" transform="matrix(1,0,0,1,250,165.322998046875)"><path stroke-linecap="round" stroke-linejoin="round" fill-opacity="0" stroke="rgb(7,168,137)" stroke-opacity="1" stroke-width="12" d=" M145.23599243164062,48.167999267578125 C145.23599243164062,48.167999267578125 -145.23599243164062,48.167999267578125 -145.23599243164062,48.167999267578125 C-153.45599365234375,48.167999267578125 -160.11900329589844,41.505001068115234 -160.11900329589844,33.28499984741211 C-160.11900329589844,33.28499984741211 -160.11900329589844,-33.28499984741211 -160.11900329589844,-33.28499984741211 C-160.11900329589844,-41.505001068115234 -153.45599365234375,-48.167999267578125 -145.23599243164062,-48.167999267578125 C-145.23599243164062,-48.167999267578125 145.23599243164062,-48.167999267578125 145.23599243164062,-48.167999267578125 C153.45599365234375,-48.167999267578125 160.11900329589844,-41.505001068115234 160.11900329589844,-33.28499984741211 C160.11900329589844,-33.28499984741211 160.11900329589844,33.28499984741211 160.11900329589844,33.28499984741211 C160.11900329589844,41.505001068115234 153.45599365234375,48.167999267578125 145.23599243164062,48.167999267578125z"></path></g><g opacity="1" transform="matrix(1,0,0,1,139.17300415039062,165.322998046875)"><path stroke-linecap="round" stroke-linejoin="round" fill-opacity="0" stroke="rgb(18,19,48)" stroke-opacity="1" stroke-width="12" d=" M-17.461000442504883,0 C-17.461000442504883,9.642999649047852 -9.642999649047852,17.461000442504883 0,17.461000442504883 C9.642999649047852,17.461000442504883 17.461000442504883,9.642999649047852 17.461000442504883,0 C17.461000442504883,-9.642999649047852 9.642999649047852,-17.461000442504883 0,-17.461000442504883 C-9.642999649047852,-17.461000442504883 -17.461000442504883,-9.642999649047852 -17.461000442504883,0z"></path></g></g><g transform="matrix(1,0,0,1,199.34800720214844,269.343994140625)" opacity="1" style="display: block;"><g opacity="1" transform="matrix(1,0,0,1,0,0)"><path stroke-linecap="round" stroke-linejoin="round" fill-opacity="0" stroke="rgb(18,19,48)" stroke-opacity="1" stroke-width="12" d="M0 0"></path></g><g opacity="1" transform="matrix(1,0,0,1,0,0)"><path stroke-linecap="round" stroke-linejoin="round" fill-opacity="0" stroke="rgb(18,19,48)" stroke-opacity="1" stroke-width="12" d=" M140.7217254638672,26.815000534057617 C140.7217254638672,26.815000534057617 101.4894790649414,-26.558000564575195 101.4894790649414,-26.558000564575195 M0.1495245397090912,-26.687000274658203 C0.1495245397090912,-26.687000274658203 -39.08207702636719,26.687000274658203 -39.08207702636719,26.687000274658203"></path></g></g><g transform="matrix(1,0,0,1,199.34800720214844,269.343994140625)" opacity="1" style="display: block;"><g opacity="1" transform="matrix(1,0,0,1,0,0)"><path stroke-linecap="round" stroke-linejoin="round" fill-opacity="0" stroke="rgb(18,19,48)" stroke-opacity="1" stroke-width="12" d=" M51.275001525878906,-26.652000427246094 C51.275001525878906,-26.652000427246094 51.305999755859375,-18.13599967956543 51.34400177001953,-7.9079999923706055"></path></g></g><g transform="matrix(1,0,0,1,0,0)" opacity="1" style="display: block;"><g opacity="0" transform="matrix(1,0,0,1,238.60400390625,151.07400512695312)"><path stroke-linecap="round" stroke-linejoin="round" fill-opacity="0" stroke-dasharray=" 0.25 25" stroke-dashoffset="0" stroke="rgb(18,19,48)" stroke-opacity="1" stroke-width="14" d=" M-0.08399999886751175,0 C-0.08399999886751175,0 0.08399999886751175,0 0.08399999886751175,0"></path></g><g opacity="1" transform="matrix(1,0,0,1,265.88299560546875,151.07400512695312)"><path stroke-linecap="round" stroke-linejoin="round" fill-opacity="0" stroke-dasharray=" 0.25 25" stroke-dashoffset="0" stroke="rgb(18,19,48)" stroke-opacity="1" stroke-width="14" d=" M-0.08399999886751175,0 C-0.08399999886751175,0 0.08399999886751175,0 0.08399999886751175,0"></path></g><g opacity="1" transform="matrix(1,0,0,1,293.1610107421875,151.07400512695312)"><path stroke-linecap="round" stroke-linejoin="round" fill-opacity="0" stroke-dasharray=" 0.25 25" stroke-dashoffset="0" stroke="rgb(18,19,48)" stroke-opacity="1" stroke-width="14" d=" M-0.08399999886751175,0 C-0.08399999886751175,0 0.08399999886751175,0 0.08399999886751175,0"></path></g><g opacity="1" transform="matrix(1,0,0,1,320.44000244140625,151.07400512695312)"><path stroke-linecap="round" stroke-linejoin="round" fill-opacity="0" stroke-dasharray=" 0.25 25" stroke-dashoffset="0" stroke="rgb(18,19,48)" stroke-opacity="1" stroke-width="14" d=" M-0.08399999886751175,0 C-0.08399999886751175,0 0.08399999886751175,0 0.08399999886751175,0"></path></g><g opacity="1" transform="matrix(1,0,0,1,347.718994140625,151.07400512695312)"><path stroke-linecap="round" stroke-linejoin="round" fill-opacity="0" stroke-dasharray=" 0.25 25" stroke-dashoffset="0" stroke="rgb(18,19,48)" stroke-opacity="1" stroke-width="14" d=" M-0.08399999886751175,0 C-0.08399999886751175,0 0.08399999886751175,0 0.08399999886751175,0"></path></g><g opacity="1" transform="matrix(1,0,0,1,374.99798583984375,151.07400512695312)"><path stroke-linecap="round" stroke-linejoin="round" fill-opacity="0" stroke-dasharray=" 0.25 25" stroke-dashoffset="0" stroke="rgb(18,19,48)" stroke-opacity="1" stroke-width="14" d=" M-0.08399999886751175,0 C-0.08399999886751175,0 0.08399999886751175,0 0.08399999886751175,0"></path></g><g opacity="1" transform="matrix(1,0,0,1,238.60400390625,179.6739959716797)"><path stroke-linecap="round" stroke-linejoin="round" fill-opacity="0" stroke-dasharray=" 0.25 25" stroke-dashoffset="0" stroke="rgb(18,19,48)" stroke-opacity="1" stroke-width="14" d=" M-0.08399999886751175,0 C-0.08399999886751175,0 0.08399999886751175,0 0.08399999886751175,0"></path></g><g opacity="1" transform="matrix(1,0,0,1,265.88299560546875,179.6739959716797)"><path stroke-linecap="round" stroke-linejoin="round" fill-opacity="0" stroke-dasharray=" 0.25 25" stroke-dashoffset="0" stroke="rgb(18,19,48)" stroke-opacity="1" stroke-width="14" d=" M-0.08399999886751175,0 C-0.08399999886751175,0 0.08399999886751175,0 0.08399999886751175,0"></path></g><g opacity="1" transform="matrix(1,0,0,1,293.1610107421875,179.6739959716797)"><path stroke-linecap="round" stroke-linejoin="round" fill-opacity="0" stroke-dasharray=" 0.25 25" stroke-dashoffset="0" stroke="rgb(18,19,48)" stroke-opacity="1" stroke-width="14" d=" M-0.08399999886751175,0 C-0.08399999886751175,0 0.08399999886751175,0 0.08399999886751175,0"></path></g><g opacity="1" transform="matrix(1,0,0,1,320.44000244140625,179.6739959716797)"><path stroke-linecap="round" stroke-linejoin="round" fill-opacity="0" stroke-dasharray=" 0.25 25" stroke-dashoffset="0" stroke="rgb(18,19,48)" stroke-opacity="1" stroke-width="14" d=" M-0.08399999886751175,0 C-0.08399999886751175,0 0.08399999886751175,0 0.08399999886751175,0"></path></g><g opacity="1" transform="matrix(1,0,0,1,347.718994140625,179.6739959716797)"><path stroke-linecap="round" stroke-linejoin="round" fill-opacity="0" stroke-dasharray=" 0.25 25" stroke-dashoffset="0" stroke="rgb(18,19,48)" stroke-opacity="1" stroke-width="14" d=" M-0.08399999886751175,0 C-0.08399999886751175,0 0.08399999886751175,0 0.08399999886751175,0"></path></g><g opacity="0" transform="matrix(1,0,0,1,374.99798583984375,179.6739959716797)"><path stroke-linecap="round" stroke-linejoin="round" fill-opacity="0" stroke-dasharray=" 0.25 25" stroke-dashoffset="0" stroke="rgb(18,19,48)" stroke-opacity="1" stroke-width="14" d=" M-0.08399999886751175,0 C-0.08399999886751175,0 0.08399999886751175,0 0.08399999886751175,0"></path></g></g><g transform="matrix(1,0,0,1,250,352.2560119628906)" opacity="1" style="display: block;"><g opacity="1" transform="matrix(1,0,0,1,0,0)"><path stroke-linecap="round" stroke-linejoin="round" fill-opacity="0" stroke="rgb(7,168,137)" stroke-opacity="1" stroke-width="12" d=" M17.137414932250977,-43.16557312011719 C17.137414932250977,-43.16557312011719 -15.754096031188965,-43.16557312011719 -15.754096031188965,-43.16557312011719 C-23.32547378540039,-43.16557312011719 -29.461793899536133,-49.302894592285156 -29.461793899536133,-56.874271392822266 C-29.461793899536133,-56.874271392822266 -29.5179386138916,-68.7381362915039 -29.5179386138916,-68.7381362915039 C-29.5179386138916,-76.30951690673828 -23.38069725036621,-82.44683837890625 -15.809319496154785,-82.44683837890625 C-15.809319496154785,-82.44683837890625 17.081270217895508,-82.44683837890625 17.081270217895508,-82.44683837890625 C24.65264892578125,-82.44683837890625 30.78989028930664,-76.30951690673828 30.78989028930664,-68.7381362915039 C30.78989028930664,-68.7381362915039 30.84603500366211,-56.874271392822266 30.84603500366211,-56.874271392822266 C30.84603500366211,-49.302894592285156 24.70879364013672,-43.16557312011719 17.137414932250977,-43.16557312011719z"></path></g></g></g><g style="display: none;"><path></path></g></g></svg>